<?xml version="1.0" encoding="UTF-8" ?>
<!DOCTYPE svg PUBLIC "-//W3C//DTD SVG 1.1//EN" "http://www.w3.org/Graphics/SVG/1.1/DTD/svg11.dtd">
<svg width="912pt" height="912pt" viewBox="0 0 912 912" version="1.1" xmlns="http://www.w3.org/2000/svg">
<g id="#000000ff">
<path fill="#000000" opacity="1.00" d=" M 167.33 206.26 C 220.58 205.73 273.83 206.24 327.07 206.08 C 445.71 206.10 564.34 206.10 682.98 206.05 C 703.51 206.00 724.05 205.93 744.59 206.23 C 735.62 221.55 725.94 236.45 716.48 251.47 C 631.39 387.25 546.60 523.22 462.50 659.61 C 460.53 662.63 458.90 665.87 456.70 668.73 C 455.28 669.29 454.65 667.97 454.02 666.99 C 362.66 518.93 270.68 371.25 178.14 223.93 C 174.45 218.09 170.64 212.32 167.33 206.26 M 271.89 263.91 C 291.88 295.98 312.03 327.95 332.06 360.01 C 373.37 425.99 414.07 492.35 456.02 557.93 C 464.63 545.11 472.50 531.83 480.80 518.81 C 533.96 433.88 586.80 348.75 640.09 263.90 C 587.73 263.21 535.36 263.26 483.00 263.08 C 412.63 262.98 342.26 263.16 271.89 263.91 Z" />
</g>
</svg>
